<?xml version="1.0" encoding="UTF-8" standalone="no"?>
<!-- Generator: Adobe Illustrator 24.1.3, SVG Export Plug-In . SVG Version: 6.00 Build 0)  -->

<svg
   xmlns:dc="http://purl.org/dc/elements/1.1/"
   xmlns:cc="http://creativecommons.org/ns#"
   xmlns:rdf="http://www.w3.org/1999/02/22-rdf-syntax-ns#"
   xmlns:svg="http://www.w3.org/2000/svg"
   xmlns="http://www.w3.org/2000/svg"
   xmlns:sodipodi="http://sodipodi.sourceforge.net/DTD/sodipodi-0.dtd"
   xmlns:inkscape="http://www.inkscape.org/namespaces/inkscape"
   version="1.1"
   id="Layer_1"
   x="0px"
   y="0px"
   viewBox="0 0 379.99999 100"
   xml:space="preserve"
   inkscape:version="0.91 r13725"
   sodipodi:docname="dm-logo-full.svg"
   width="380"
   height="100"><metadata
     id="metadata123"><rdf:RDF><cc:Work
         rdf:about=""><dc:format>image/svg+xml</dc:format><dc:type
           rdf:resource="http://purl.org/dc/dcmitype/StillImage" /><dc:title></dc:title></cc:Work></rdf:RDF></metadata><defs
     id="defs121" /><sodipodi:namedview
     pagecolor="#ffffff"
     bordercolor="#666666"
     borderopacity="1"
     objecttolerance="10"
     gridtolerance="10"
     guidetolerance="10"
     inkscape:pageopacity="0"
     inkscape:pageshadow="2"
     inkscape:window-width="1336"
     inkscape:window-height="777"
     id="namedview119"
     showgrid="false"
     inkscape:zoom="2.0043363"
     inkscape:cx="215.5659"
     inkscape:cy="141.73"
     inkscape:window-x="0"
     inkscape:window-y="0"
     inkscape:window-maximized="0"
     inkscape:current-layer="Layer_1" /><style
     type="text/css"
     id="style3">
	.st0{fill:#58595B;}
	.st1{fill:#579D44;}
	.st2{fill:#FFFFFF;}
	.st3{fill:#569C44;}
</style><g
     id="g5"
     transform="translate(-24,-89.45999)"><g
       id="g7"><path
         class="st0"
         d="m 146.71,150.65 c -2.2,-1.23 -3.89,-2.97 -5.08,-5.22 -1.19,-2.25 -1.78,-4.9 -1.78,-7.94 0,-3.04 0.59,-5.68 1.78,-7.94 1.19,-2.25 2.88,-3.98 5.08,-5.2 2.2,-1.22 4.79,-1.82 7.77,-1.82 2.98,0 5.57,0.61 7.77,1.82 2.2,1.21 3.88,2.95 5.06,5.2 1.17,2.25 1.76,4.9 1.76,7.94 0,3.04 -0.59,5.68 -1.78,7.94 -1.19,2.25 -2.88,3.99 -5.08,5.22 -2.2,1.23 -4.77,1.84 -7.73,1.84 -2.98,0.01 -5.57,-0.61 -7.77,-1.84 z m 12.95,-6.34 c 1.24,-1.56 1.86,-3.83 1.86,-6.82 0,-2.99 -0.63,-5.25 -1.89,-6.8 -1.26,-1.55 -2.98,-2.32 -5.16,-2.32 -2.21,0 -3.94,0.77 -5.18,2.3 -1.24,1.53 -1.87,3.81 -1.87,6.82 0,3.01 0.62,5.29 1.87,6.84 1.24,1.55 2.97,2.32 5.18,2.32 2.22,0 3.95,-0.78 5.19,-2.34 z"
         id="path9"
         inkscape:connector-curvature="0"
         style="fill:#58595b" /><path
         class="st0"
         d="m 178.26,150.65 c -2.2,-1.23 -3.89,-2.97 -5.08,-5.22 -1.19,-2.25 -1.78,-4.9 -1.78,-7.94 0,-3.04 0.59,-5.68 1.78,-7.94 1.19,-2.25 2.88,-3.98 5.08,-5.2 2.2,-1.22 4.79,-1.82 7.77,-1.82 2.98,0 5.57,0.61 7.77,1.82 2.2,1.21 3.88,2.95 5.06,5.2 1.17,2.25 1.76,4.9 1.76,7.94 0,3.04 -0.59,5.68 -1.78,7.94 -1.19,2.25 -2.88,3.99 -5.08,5.22 -2.2,1.23 -4.77,1.84 -7.73,1.84 -2.99,0.01 -5.58,-0.61 -7.77,-1.84 z m 12.95,-6.34 c 1.24,-1.56 1.86,-3.83 1.86,-6.82 0,-2.99 -0.63,-5.25 -1.89,-6.8 -1.26,-1.55 -2.98,-2.32 -5.16,-2.32 -2.21,0 -3.94,0.77 -5.18,2.3 -1.24,1.53 -1.87,3.81 -1.87,6.82 0,3.01 0.62,5.29 1.87,6.84 1.24,1.55 2.97,2.32 5.18,2.32 2.22,0 3.94,-0.78 5.19,-2.34 z"
         id="path11"
         inkscape:connector-curvature="0"
         style="fill:#58595b" /><path
         class="st0"
         d="m 229.33,149.39 c 0,0.88 -0.37,1.62 -1.1,2.22 -0.73,0.59 -1.58,0.89 -2.55,0.89 -0.66,0 -1.28,-0.15 -1.87,-0.46 -0.58,-0.3 -1.08,-0.76 -1.49,-1.37 l -5.39,-7.87 c -0.39,-0.55 -0.79,-0.96 -1.22,-1.22 -0.43,-0.26 -0.93,-0.39 -1.51,-0.39 l -2.69,0 0,7.42 c 0,1.16 -0.33,2.08 -1,2.76 -0.67,0.68 -1.57,1.02 -2.73,1.02 -1.16,0 -2.08,-0.34 -2.76,-1.02 -0.68,-0.68 -1.02,-1.6 -1.02,-2.76 l 0,-22.17 c 0,-1.13 0.3,-2 0.91,-2.61 0.61,-0.61 1.48,-0.91 2.61,-0.91 l 10.4,0 c 3.54,0 6.2,0.77 7.98,2.3 1.78,1.53 2.67,3.75 2.67,6.65 0,2.21 -0.61,4.08 -1.82,5.62 -1.22,1.53 -2.93,2.56 -5.14,3.09 0.91,0.14 1.71,0.44 2.38,0.91 0.68,0.47 1.35,1.17 2.01,2.11 l 2.57,3.69 c 0.52,0.73 0.76,1.43 0.76,2.1 z m -8.97,-14.71 c 0.73,-0.52 1.1,-1.38 1.1,-2.57 0,-1.22 -0.37,-2.09 -1.1,-2.63 -0.73,-0.54 -1.94,-0.81 -3.63,-0.81 l -5.3,0 0,6.8 5.3,0 c 1.69,-0.01 2.9,-0.27 3.63,-0.79 z"
         id="path13"
         inkscape:connector-curvature="0"
         style="fill:#58595b" /><path
         class="st0"
         d="m 260.92,123.74 c 0.66,0.69 0.99,1.59 0.99,2.69 l 0,22.54 c 0,1.05 -0.3,1.88 -0.91,2.49 -0.61,0.61 -1.41,0.91 -2.4,0.91 -0.97,0 -1.76,-0.3 -2.38,-0.91 -0.62,-0.61 -0.93,-1.44 -0.93,-2.49 l 0,-12.18 -4.72,8.7 c -0.47,0.88 -0.97,1.51 -1.49,1.89 -0.52,0.38 -1.15,0.56 -1.86,0.56 -0.72,0 -1.34,-0.19 -1.87,-0.56 -0.53,-0.37 -1.02,-1 -1.49,-1.89 l -4.68,-8.45 0,11.94 c 0,1.02 -0.31,1.84 -0.93,2.47 -0.62,0.62 -1.43,0.93 -2.42,0.93 -0.97,0 -1.76,-0.3 -2.38,-0.91 -0.62,-0.61 -0.93,-1.44 -0.93,-2.49 l 0,-22.54 c 0,-1.1 0.34,-2 1.01,-2.69 0.68,-0.69 1.54,-1.04 2.59,-1.04 0.75,0 1.42,0.21 2.03,0.64 0.61,0.43 1.12,1.04 1.53,1.84 l 7.63,14.34 7.58,-14.34 c 0.86,-1.66 2.02,-2.49 3.48,-2.49 1.03,0 1.89,0.35 2.55,1.04 z"
         id="path15"
         inkscape:connector-curvature="0"
         style="fill:#58595b" /><path
         class="st0"
         d="m 272.3,150.65 c -2.2,-1.23 -3.89,-2.97 -5.08,-5.22 -1.19,-2.25 -1.78,-4.9 -1.78,-7.94 0,-3.04 0.59,-5.68 1.78,-7.94 1.19,-2.25 2.88,-3.98 5.08,-5.2 2.2,-1.22 4.79,-1.82 7.77,-1.82 2.98,0 5.57,0.61 7.77,1.82 2.2,1.21 3.88,2.95 5.06,5.2 1.17,2.25 1.76,4.9 1.76,7.94 0,3.04 -0.59,5.68 -1.78,7.94 -1.19,2.25 -2.88,3.99 -5.08,5.22 -2.2,1.23 -4.77,1.84 -7.73,1.84 -2.99,0.01 -5.58,-0.61 -7.77,-1.84 z m 12.95,-6.34 c 1.24,-1.56 1.86,-3.83 1.86,-6.82 0,-2.99 -0.63,-5.25 -1.89,-6.8 -1.26,-1.55 -2.98,-2.32 -5.16,-2.32 -2.21,0 -3.94,0.77 -5.18,2.3 -1.24,1.53 -1.87,3.81 -1.87,6.82 0,3.01 0.62,5.29 1.87,6.84 1.24,1.55 2.97,2.32 5.18,2.32 2.22,0 3.94,-0.78 5.19,-2.34 z"
         id="path17"
         inkscape:connector-curvature="0"
         style="fill:#58595b" /><path
         class="st0"
         d="m 301.08,149.26 c -2.2,-2.16 -3.29,-5.3 -3.29,-9.45 l 0,-13.39 c 0,-1.13 0.34,-2.04 1.02,-2.71 0.68,-0.68 1.58,-1.02 2.71,-1.02 1.13,0 2.04,0.34 2.71,1.02 0.68,0.68 1.02,1.58 1.02,2.71 l 0,13.68 c 0,2.1 0.47,3.72 1.41,4.85 0.94,1.13 2.29,1.7 4.06,1.7 1.77,0 3.12,-0.57 4.06,-1.7 0.94,-1.13 1.41,-2.75 1.41,-4.85 l 0,-13.68 c 0,-1.13 0.34,-2.04 1.02,-2.71 0.68,-0.68 1.58,-1.02 2.71,-1.02 1.13,0 2.04,0.34 2.74,1.02 0.69,0.68 1.04,1.58 1.04,2.71 l 0,13.39 c 0,4.12 -1.11,7.26 -3.34,9.43 -2.22,2.17 -5.44,3.25 -9.64,3.25 -4.23,0.01 -7.44,-1.07 -9.64,-3.23 z"
         id="path19"
         inkscape:connector-curvature="0"
         style="fill:#58595b" /><path
         class="st0"
         d="m 332.43,151.77 c -1.89,-0.48 -3.45,-1.15 -4.66,-2.01 -0.47,-0.36 -0.81,-0.73 -1.02,-1.12 -0.21,-0.39 -0.31,-0.88 -0.31,-1.49 0,-0.83 0.25,-1.55 0.75,-2.16 0.5,-0.61 1.08,-0.91 1.74,-0.91 0.36,0 0.7,0.06 1.04,0.17 0.33,0.11 0.75,0.32 1.24,0.62 1.13,0.64 2.26,1.09 3.38,1.37 1.12,0.28 2.38,0.41 3.79,0.41 1.63,0 2.87,-0.24 3.71,-0.72 0.84,-0.48 1.26,-1.2 1.26,-2.13 0,-0.63 -0.39,-1.18 -1.18,-1.64 -0.79,-0.46 -2.29,-0.9 -4.5,-1.35 -2.74,-0.58 -4.88,-1.27 -6.42,-2.07 -1.55,-0.8 -2.63,-1.75 -3.25,-2.84 -0.62,-1.09 -0.93,-2.41 -0.93,-3.96 0,-1.77 0.52,-3.37 1.58,-4.81 1.05,-1.44 2.49,-2.56 4.33,-3.38 1.84,-0.81 3.9,-1.22 6.2,-1.22 2.02,0 3.81,0.22 5.39,0.66 1.58,0.44 3.01,1.13 4.31,2.07 0.5,0.36 0.85,0.74 1.06,1.14 0.21,0.4 0.31,0.89 0.31,1.47 0,0.83 -0.24,1.55 -0.73,2.15 -0.48,0.61 -1.06,0.91 -1.72,0.91 -0.36,0 -0.69,-0.05 -0.99,-0.15 -0.3,-0.1 -0.73,-0.31 -1.29,-0.64 -0.14,-0.08 -0.53,-0.3 -1.18,-0.64 -0.65,-0.35 -1.41,-0.62 -2.28,-0.83 -0.87,-0.21 -1.82,-0.31 -2.84,-0.31 -1.41,0 -2.54,0.27 -3.4,0.81 -0.86,0.54 -1.28,1.25 -1.28,2.13 0,0.53 0.15,0.95 0.46,1.28 0.3,0.33 0.87,0.66 1.7,0.97 0.83,0.32 2.06,0.64 3.69,0.97 2.65,0.58 4.74,1.28 6.26,2.09 1.52,0.82 2.6,1.76 3.23,2.84 0.63,1.08 0.95,2.35 0.95,3.81 0,1.82 -0.51,3.43 -1.53,4.83 -1.02,1.4 -2.45,2.47 -4.29,3.23 -1.84,0.76 -3.97,1.14 -6.4,1.14 -2.23,0.04 -4.28,-0.21 -6.18,-0.69 z"
         id="path21"
         inkscape:connector-curvature="0"
         style="fill:#58595b" /><path
         class="st0"
         d="m 355.09,151.21 c -0.61,-0.61 -0.91,-1.48 -0.91,-2.61 l 0,-22.17 c 0,-1.13 0.3,-2 0.91,-2.61 0.61,-0.61 1.48,-0.91 2.61,-0.91 l 14.34,0 c 1.19,0 2.09,0.25 2.69,0.75 0.61,0.5 0.91,1.22 0.91,2.15 0,1.99 -1.2,2.98 -3.61,2.98 l -10.44,0 0,5.55 9.61,0 c 2.4,0 3.61,0.98 3.61,2.94 0,0.94 -0.3,1.66 -0.91,2.15 -0.61,0.5 -1.51,0.75 -2.69,0.75 l -9.61,0 0,6.05 10.44,0 c 2.4,0 3.61,1 3.61,2.98 0,0.94 -0.3,1.66 -0.91,2.16 -0.61,0.5 -1.51,0.75 -2.69,0.75 l -14.35,0 c -1.14,0 -2.01,-0.3 -2.61,-0.91 z"
         id="path23"
         inkscape:connector-curvature="0"
         style="fill:#58595b" /></g><path
       class="st0"
       d="m 67.78,176.28 c -1.02,-1.02 -1.53,-2.4 -1.53,-4.14 l 0,-68.63 c 0,-1.74 0.51,-3.12 1.53,-4.14 1.02,-1.02 2.44,-1.53 4.25,-1.53 l 22.23,0 c 12.93,0 22.95,3.48 30.06,10.44 7.11,6.96 10.66,16.79 10.66,29.49 0,12.71 -3.56,22.56 -10.66,29.55 -7.11,7 -17.13,10.49 -30.06,10.49 l -22.22,0 c -1.82,0 -3.23,-0.51 -4.26,-1.53 z m 9.89,-8.23 15.65,0 c 19.66,0 29.49,-10.1 29.49,-30.29 0,-20.11 -9.83,-30.17 -29.49,-30.17 l -15.65,0 0,60.46 z"
       id="path25"
       inkscape:connector-curvature="0"
       style="fill:#58595b" /><g
       id="g27"><path
         class="st1"
         d="m 149.02,170.9 0,3.89 c 0,0.23 -0.07,0.41 -0.2,0.53 -0.13,0.12 -0.32,0.19 -0.56,0.19 -0.23,0 -0.41,-0.07 -0.55,-0.19 -0.13,-0.13 -0.2,-0.3 -0.2,-0.52 l 0,-3.81 c 0,-0.62 -0.12,-1.07 -0.37,-1.36 -0.25,-0.29 -0.63,-0.43 -1.14,-0.43 -0.61,0 -1.1,0.19 -1.46,0.57 -0.36,0.38 -0.55,0.89 -0.55,1.52 l 0,3.51 c 0,0.22 -0.07,0.39 -0.2,0.52 -0.13,0.13 -0.32,0.19 -0.54,0.19 -0.23,0 -0.41,-0.07 -0.55,-0.19 -0.14,-0.13 -0.21,-0.3 -0.21,-0.52 l 0,-6.08 c 0,-0.21 0.07,-0.38 0.22,-0.52 0.14,-0.13 0.33,-0.2 0.55,-0.2 0.22,0 0.39,0.06 0.52,0.19 0.13,0.13 0.19,0.3 0.19,0.51 l 0,0.61 c 0.24,-0.44 0.57,-0.77 1,-1 0.43,-0.23 0.91,-0.34 1.45,-0.34 1.73,-0.01 2.6,0.97 2.6,2.93 z"
         id="path29"
         inkscape:connector-curvature="0"
         style="fill:#579d44" /><path
         class="st1"
         d="m 157.29,173.76 c 0.09,0.11 0.13,0.25 0.13,0.42 0,0.29 -0.18,0.53 -0.54,0.73 -0.35,0.2 -0.73,0.35 -1.14,0.46 -0.41,0.11 -0.81,0.16 -1.19,0.16 -1.16,0 -2.07,-0.34 -2.74,-1.01 -0.67,-0.67 -1,-1.59 -1,-2.76 0,-0.75 0.15,-1.41 0.44,-1.99 0.29,-0.58 0.71,-1.03 1.24,-1.34 0.53,-0.32 1.14,-0.48 1.82,-0.48 0.98,0 1.75,0.31 2.32,0.94 0.57,0.63 0.85,1.47 0.85,2.54 0,0.4 -0.18,0.6 -0.54,0.6 l -4.62,0 c 0.1,1.54 0.84,2.32 2.23,2.32 0.37,0 0.69,-0.05 0.96,-0.15 0.27,-0.1 0.55,-0.23 0.85,-0.39 0.03,-0.02 0.11,-0.06 0.25,-0.13 0.13,-0.06 0.25,-0.1 0.34,-0.1 0.13,0.01 0.25,0.07 0.34,0.18 z m -4.34,-4.14 c -0.35,0.37 -0.56,0.89 -0.63,1.55 l 3.86,0 c -0.03,-0.68 -0.2,-1.2 -0.52,-1.56 -0.31,-0.36 -0.75,-0.54 -1.32,-0.54 -0.57,0 -1.04,0.18 -1.39,0.55 z"
         id="path31"
         inkscape:connector-curvature="0"
         style="fill:#579d44" /><path
         class="st1"
         d="m 163.26,174.53 c 0.09,0.09 0.14,0.23 0.14,0.4 0,0.2 -0.08,0.35 -0.23,0.46 -0.15,0.11 -0.38,0.15 -0.68,0.13 l -0.4,-0.03 c -0.81,-0.06 -1.41,-0.31 -1.81,-0.74 -0.4,-0.43 -0.6,-1.07 -0.6,-1.92 l 0,-3.51 -0.9,0 c -0.44,0 -0.66,-0.19 -0.66,-0.58 0,-0.18 0.06,-0.32 0.17,-0.43 0.11,-0.11 0.28,-0.16 0.49,-0.16 l 0.9,0 0,-1.54 c 0,-0.23 0.07,-0.41 0.2,-0.54 0.13,-0.13 0.32,-0.19 0.55,-0.19 0.23,0 0.41,0.06 0.55,0.19 0.14,0.13 0.21,0.31 0.21,0.54 l 0,1.54 1.48,0 c 0.21,0 0.37,0.05 0.49,0.16 0.11,0.1 0.17,0.25 0.17,0.43 0,0.19 -0.06,0.33 -0.17,0.43 -0.12,0.1 -0.28,0.15 -0.49,0.15 l -1.48,0 0,3.62 c 0,0.47 0.1,0.81 0.29,1.03 0.19,0.22 0.49,0.34 0.89,0.37 l 0.42,0.03 c 0.22,0.01 0.37,0.06 0.47,0.16 z"
         id="path33"
         inkscape:connector-curvature="0"
         style="fill:#579d44" /><path
         class="st1"
         d="m 175.28,168 c 0.19,0 0.36,0.07 0.51,0.19 0.15,0.13 0.22,0.29 0.22,0.48 0,0.1 -0.02,0.19 -0.06,0.27 l -2.48,6.05 c -0.06,0.16 -0.16,0.28 -0.3,0.37 -0.14,0.08 -0.29,0.13 -0.46,0.13 -0.16,0 -0.31,-0.04 -0.45,-0.13 -0.14,-0.08 -0.24,-0.21 -0.3,-0.37 l -1.94,-4.8 -1.9,4.8 c -0.06,0.16 -0.16,0.28 -0.29,0.37 -0.13,0.08 -0.29,0.13 -0.46,0.13 -0.16,0 -0.31,-0.04 -0.46,-0.13 -0.14,-0.08 -0.25,-0.21 -0.32,-0.37 l -2.47,-6.05 c -0.04,-0.08 -0.06,-0.16 -0.06,-0.25 0,-0.2 0.08,-0.36 0.25,-0.49 0.16,-0.13 0.35,-0.19 0.55,-0.19 0.3,0 0.5,0.14 0.61,0.43 l 1.93,5.1 1.97,-5.05 c 0.06,-0.16 0.15,-0.28 0.28,-0.36 0.13,-0.08 0.27,-0.12 0.42,-0.12 0.14,0 0.27,0.04 0.4,0.12 0.13,0.08 0.22,0.2 0.28,0.36 l 1.97,5.02 1.93,-5.05 c 0.13,-0.31 0.33,-0.46 0.63,-0.46 z"
         id="path35"
         inkscape:connector-curvature="0"
         style="fill:#579d44" /><path
         class="st1"
         d="m 178.74,175.07 c -0.54,-0.31 -0.96,-0.75 -1.26,-1.32 -0.29,-0.57 -0.44,-1.24 -0.44,-2 0,-0.77 0.15,-1.44 0.44,-2.01 0.29,-0.57 0.71,-1.01 1.26,-1.32 0.55,-0.31 1.17,-0.46 1.89,-0.46 0.72,0 1.35,0.16 1.89,0.46 0.54,0.3 0.96,0.75 1.26,1.32 0.3,0.57 0.44,1.24 0.44,2.01 0,0.76 -0.15,1.42 -0.44,2 -0.29,0.57 -0.71,1.01 -1.26,1.32 -0.55,0.31 -1.17,0.46 -1.89,0.46 -0.72,0.01 -1.35,-0.15 -1.89,-0.46 z m 3.42,-1.39 c 0.35,-0.44 0.53,-1.08 0.53,-1.93 0,-0.84 -0.18,-1.48 -0.54,-1.92 -0.36,-0.44 -0.87,-0.67 -1.52,-0.67 -0.66,0 -1.17,0.22 -1.52,0.67 -0.36,0.44 -0.54,1.08 -0.54,1.92 0,0.85 0.18,1.49 0.53,1.93 0.35,0.44 0.86,0.66 1.53,0.66 0.67,0 1.18,-0.22 1.53,-0.66 z"
         id="path37"
         inkscape:connector-curvature="0"
         style="fill:#579d44" /><path
         class="st1"
         d="m 190.58,168.6 c 0,0.22 -0.05,0.38 -0.16,0.49 -0.11,0.11 -0.3,0.17 -0.57,0.19 l -0.45,0.04 c -0.63,0.06 -1.09,0.28 -1.4,0.66 -0.3,0.38 -0.46,0.84 -0.46,1.37 l 0,3.42 c 0,0.24 -0.07,0.42 -0.21,0.54 -0.14,0.12 -0.32,0.18 -0.54,0.18 -0.22,0 -0.4,-0.06 -0.55,-0.18 -0.14,-0.12 -0.22,-0.3 -0.22,-0.54 l 0,-6.08 c 0,-0.23 0.07,-0.41 0.22,-0.53 0.14,-0.12 0.33,-0.19 0.55,-0.19 0.2,0 0.37,0.06 0.5,0.19 0.13,0.12 0.2,0.3 0.2,0.52 l 0,0.72 c 0.2,-0.44 0.49,-0.77 0.87,-1 0.38,-0.23 0.81,-0.36 1.29,-0.4 l 0.21,-0.01 c 0.49,-0.03 0.72,0.17 0.72,0.61 z"
         id="path39"
         inkscape:connector-curvature="0"
         style="fill:#579d44" /><path
         class="st1"
         d="m 198.06,174.8 c 0,0.19 -0.06,0.35 -0.19,0.49 -0.13,0.14 -0.28,0.21 -0.46,0.21 -0.19,0 -0.36,-0.07 -0.51,-0.21 l -3.72,-3.29 0,2.76 c 0,0.24 -0.07,0.42 -0.21,0.54 -0.14,0.12 -0.32,0.19 -0.54,0.19 -0.22,0 -0.4,-0.06 -0.55,-0.19 -0.14,-0.12 -0.22,-0.31 -0.22,-0.54 l 0,-9.22 c 0,-0.24 0.07,-0.42 0.22,-0.54 0.15,-0.12 0.33,-0.19 0.55,-0.19 0.22,0 0.4,0.06 0.54,0.19 0.14,0.12 0.21,0.31 0.21,0.54 l 0,5.86 3.41,-3.18 c 0.17,-0.15 0.33,-0.22 0.49,-0.22 0.19,0 0.35,0.07 0.49,0.21 0.14,0.14 0.21,0.3 0.21,0.49 0,0.19 -0.08,0.36 -0.25,0.52 l -2.66,2.44 2.93,2.58 c 0.17,0.16 0.26,0.35 0.26,0.56 z"
         id="path41"
         inkscape:connector-curvature="0"
         style="fill:#579d44" /><path
         class="st1"
         d="m 208.85,168.69 c 0.47,0.49 0.71,1.23 0.71,2.23 l 0,3.87 c 0,0.23 -0.07,0.41 -0.19,0.53 -0.13,0.12 -0.31,0.19 -0.54,0.19 -0.22,0 -0.39,-0.07 -0.52,-0.19 -0.13,-0.13 -0.19,-0.3 -0.19,-0.52 l 0,-0.55 c -0.19,0.42 -0.47,0.74 -0.84,0.96 -0.37,0.22 -0.81,0.34 -1.31,0.34 -0.48,0 -0.92,-0.1 -1.31,-0.29 -0.39,-0.19 -0.71,-0.46 -0.93,-0.8 -0.22,-0.34 -0.34,-0.72 -0.34,-1.15 -0.01,-0.54 0.12,-0.96 0.4,-1.26 0.28,-0.3 0.73,-0.52 1.36,-0.66 0.63,-0.14 1.5,-0.2 2.62,-0.2 l 0.34,0 0,-0.43 c 0,-0.56 -0.11,-0.96 -0.34,-1.21 -0.23,-0.25 -0.6,-0.37 -1.11,-0.37 -0.35,0 -0.68,0.04 -0.99,0.13 -0.31,0.09 -0.65,0.22 -1.02,0.39 -0.27,0.15 -0.46,0.22 -0.57,0.22 -0.15,0 -0.27,-0.05 -0.37,-0.17 -0.09,-0.11 -0.14,-0.25 -0.14,-0.42 0,-0.15 0.04,-0.28 0.13,-0.4 0.08,-0.11 0.22,-0.23 0.41,-0.34 0.35,-0.19 0.76,-0.34 1.23,-0.46 0.47,-0.11 0.92,-0.17 1.36,-0.17 0.96,0 1.68,0.24 2.15,0.73 z m -1.27,5.17 c 0.35,-0.37 0.52,-0.85 0.52,-1.44 l 0,-0.39 -0.27,0 c -0.78,0 -1.38,0.04 -1.79,0.1 -0.42,0.07 -0.72,0.19 -0.9,0.35 -0.18,0.16 -0.27,0.4 -0.27,0.71 0,0.36 0.13,0.65 0.39,0.88 0.26,0.23 0.58,0.34 0.97,0.34 0.55,0.01 1,-0.18 1.35,-0.55 z"
         id="path43"
         inkscape:connector-curvature="0"
         style="fill:#579d44" /><path
         class="st1"
         d="m 213.04,175.07 c -0.53,-0.31 -0.95,-0.75 -1.24,-1.32 -0.29,-0.57 -0.44,-1.23 -0.44,-1.97 0,-0.76 0.15,-1.42 0.46,-2 0.3,-0.58 0.73,-1.03 1.28,-1.34 0.55,-0.32 1.18,-0.48 1.88,-0.48 0.38,0 0.76,0.05 1.14,0.17 0.38,0.11 0.72,0.26 1.02,0.45 0.32,0.22 0.48,0.47 0.48,0.76 0,0.17 -0.04,0.31 -0.13,0.43 -0.09,0.12 -0.2,0.17 -0.34,0.17 -0.09,0 -0.18,-0.02 -0.27,-0.07 -0.09,-0.04 -0.21,-0.11 -0.34,-0.2 -0.25,-0.16 -0.48,-0.28 -0.7,-0.37 -0.22,-0.09 -0.47,-0.13 -0.77,-0.13 -0.68,0 -1.2,0.23 -1.58,0.69 -0.37,0.46 -0.56,1.1 -0.56,1.91 0,0.82 0.18,1.45 0.55,1.89 0.37,0.44 0.89,0.67 1.57,0.67 0.3,0 0.56,-0.04 0.79,-0.13 0.23,-0.09 0.46,-0.21 0.7,-0.36 0.11,-0.07 0.22,-0.13 0.33,-0.18 0.11,-0.05 0.21,-0.08 0.3,-0.08 0.14,0 0.25,0.06 0.34,0.17 0.09,0.12 0.13,0.26 0.13,0.43 0,0.14 -0.04,0.27 -0.11,0.38 -0.08,0.11 -0.2,0.23 -0.38,0.35 -0.3,0.2 -0.65,0.35 -1.05,0.46 -0.4,0.11 -0.8,0.16 -1.21,0.16 -0.7,0.01 -1.32,-0.15 -1.85,-0.46 z"
         id="path45"
         inkscape:connector-curvature="0"
         style="fill:#579d44" /><path
         class="st1"
         d="m 220.41,175.07 c -0.53,-0.31 -0.95,-0.75 -1.24,-1.32 -0.29,-0.57 -0.44,-1.23 -0.44,-1.97 0,-0.76 0.15,-1.42 0.46,-2 0.3,-0.58 0.73,-1.03 1.28,-1.34 0.55,-0.32 1.18,-0.48 1.88,-0.48 0.38,0 0.76,0.05 1.14,0.17 0.38,0.11 0.72,0.26 1.02,0.45 0.32,0.22 0.48,0.47 0.48,0.76 0,0.17 -0.04,0.31 -0.13,0.43 -0.09,0.12 -0.2,0.17 -0.34,0.17 -0.09,0 -0.18,-0.02 -0.27,-0.07 -0.09,-0.04 -0.21,-0.11 -0.34,-0.2 -0.25,-0.16 -0.48,-0.28 -0.7,-0.37 -0.22,-0.09 -0.47,-0.13 -0.77,-0.13 -0.68,0 -1.2,0.23 -1.58,0.69 -0.37,0.46 -0.56,1.1 -0.56,1.91 0,0.82 0.18,1.45 0.55,1.89 0.37,0.44 0.89,0.67 1.57,0.67 0.3,0 0.56,-0.04 0.79,-0.13 0.23,-0.09 0.46,-0.21 0.7,-0.36 0.11,-0.07 0.22,-0.13 0.33,-0.18 0.11,-0.05 0.21,-0.08 0.3,-0.08 0.14,0 0.25,0.06 0.34,0.17 0.09,0.12 0.13,0.26 0.13,0.43 0,0.14 -0.04,0.27 -0.11,0.38 -0.08,0.11 -0.2,0.23 -0.38,0.35 -0.3,0.2 -0.65,0.35 -1.05,0.46 -0.4,0.11 -0.8,0.16 -1.21,0.16 -0.7,0.01 -1.32,-0.15 -1.85,-0.46 z"
         id="path47"
         inkscape:connector-curvature="0"
         style="fill:#579d44" /><path
         class="st1"
         d="m 232.56,173.76 c 0.09,0.11 0.13,0.25 0.13,0.42 0,0.29 -0.18,0.53 -0.54,0.73 -0.35,0.2 -0.73,0.35 -1.14,0.46 -0.41,0.11 -0.81,0.16 -1.19,0.16 -1.16,0 -2.07,-0.34 -2.74,-1.01 -0.67,-0.67 -1,-1.59 -1,-2.76 0,-0.75 0.15,-1.41 0.44,-1.99 0.29,-0.58 0.71,-1.03 1.24,-1.34 0.53,-0.32 1.14,-0.48 1.82,-0.48 0.98,0 1.75,0.31 2.32,0.94 0.57,0.63 0.85,1.47 0.85,2.54 0,0.4 -0.18,0.6 -0.54,0.6 l -4.62,0 c 0.1,1.54 0.84,2.32 2.23,2.32 0.37,0 0.69,-0.05 0.96,-0.15 0.27,-0.1 0.55,-0.23 0.85,-0.39 0.03,-0.02 0.11,-0.06 0.25,-0.13 0.13,-0.06 0.25,-0.1 0.34,-0.1 0.14,0.01 0.25,0.07 0.34,0.18 z m -4.33,-4.14 c -0.35,0.37 -0.56,0.89 -0.63,1.55 l 3.86,0 c -0.03,-0.68 -0.2,-1.2 -0.52,-1.56 -0.31,-0.36 -0.75,-0.54 -1.32,-0.54 -0.58,0 -1.04,0.18 -1.39,0.55 z"
         id="path49"
         inkscape:connector-curvature="0"
         style="fill:#579d44" /><path
         class="st1"
         d="m 234.61,174.91 c -0.18,-0.11 -0.31,-0.22 -0.38,-0.34 -0.08,-0.12 -0.11,-0.25 -0.11,-0.4 0,-0.16 0.04,-0.29 0.13,-0.4 0.09,-0.11 0.2,-0.16 0.34,-0.16 0.13,0 0.33,0.08 0.61,0.24 0.3,0.16 0.59,0.29 0.88,0.39 0.28,0.1 0.64,0.15 1.07,0.15 0.48,0 0.85,-0.08 1.12,-0.25 0.27,-0.17 0.4,-0.41 0.4,-0.72 0,-0.2 -0.05,-0.36 -0.16,-0.48 -0.11,-0.12 -0.29,-0.23 -0.55,-0.32 -0.26,-0.09 -0.64,-0.2 -1.15,-0.31 -0.88,-0.19 -1.51,-0.45 -1.89,-0.77 -0.38,-0.32 -0.58,-0.76 -0.58,-1.32 0,-0.43 0.12,-0.81 0.37,-1.16 0.25,-0.34 0.59,-0.61 1.03,-0.8 0.44,-0.19 0.94,-0.28 1.49,-0.28 0.4,0 0.79,0.05 1.17,0.16 0.38,0.1 0.71,0.26 1,0.46 0.33,0.22 0.49,0.47 0.49,0.76 0,0.16 -0.05,0.29 -0.14,0.4 -0.09,0.11 -0.21,0.17 -0.34,0.17 -0.09,0 -0.18,-0.02 -0.27,-0.06 -0.09,-0.04 -0.21,-0.11 -0.36,-0.19 -0.27,-0.16 -0.52,-0.28 -0.75,-0.37 -0.23,-0.09 -0.53,-0.13 -0.88,-0.13 -0.42,0 -0.75,0.09 -1.01,0.27 -0.25,0.18 -0.38,0.42 -0.38,0.73 0,0.28 0.12,0.5 0.35,0.65 0.23,0.16 0.67,0.3 1.32,0.44 0.67,0.14 1.19,0.3 1.57,0.48 0.38,0.18 0.65,0.4 0.81,0.67 0.16,0.26 0.25,0.6 0.25,1.01 0,0.65 -0.27,1.17 -0.82,1.56 -0.55,0.39 -1.27,0.59 -2.17,0.59 -0.98,-0.04 -1.81,-0.25 -2.46,-0.67 z"
         id="path51"
         inkscape:connector-curvature="0"
         style="fill:#579d44" /><path
         class="st1"
         d="m 241.96,174.91 c -0.18,-0.11 -0.31,-0.22 -0.38,-0.34 -0.08,-0.12 -0.11,-0.25 -0.11,-0.4 0,-0.16 0.04,-0.29 0.13,-0.4 0.09,-0.11 0.2,-0.16 0.34,-0.16 0.13,0 0.33,0.08 0.61,0.24 0.3,0.16 0.59,0.29 0.88,0.39 0.28,0.1 0.64,0.15 1.07,0.15 0.48,0 0.85,-0.08 1.12,-0.25 0.27,-0.17 0.4,-0.41 0.4,-0.72 0,-0.2 -0.05,-0.36 -0.16,-0.48 -0.11,-0.12 -0.29,-0.23 -0.55,-0.32 -0.26,-0.09 -0.64,-0.2 -1.15,-0.31 -0.88,-0.19 -1.51,-0.45 -1.89,-0.77 -0.38,-0.32 -0.58,-0.76 -0.58,-1.32 0,-0.43 0.12,-0.81 0.37,-1.16 0.25,-0.34 0.59,-0.61 1.03,-0.8 0.44,-0.19 0.94,-0.28 1.49,-0.28 0.4,0 0.79,0.05 1.17,0.16 0.38,0.1 0.71,0.26 1,0.46 0.33,0.22 0.49,0.47 0.49,0.76 0,0.16 -0.05,0.29 -0.14,0.4 -0.09,0.11 -0.21,0.17 -0.34,0.17 -0.09,0 -0.18,-0.02 -0.27,-0.06 -0.09,-0.04 -0.21,-0.11 -0.36,-0.19 -0.27,-0.16 -0.52,-0.28 -0.75,-0.37 -0.23,-0.09 -0.53,-0.13 -0.88,-0.13 -0.42,0 -0.75,0.09 -1.01,0.27 -0.25,0.18 -0.38,0.42 -0.38,0.73 0,0.28 0.12,0.5 0.35,0.65 0.23,0.16 0.67,0.3 1.32,0.44 0.67,0.14 1.19,0.3 1.57,0.48 0.38,0.18 0.65,0.4 0.81,0.67 0.16,0.26 0.25,0.6 0.25,1.01 0,0.65 -0.27,1.17 -0.82,1.56 -0.55,0.39 -1.27,0.59 -2.17,0.59 -0.98,-0.04 -1.81,-0.25 -2.46,-0.67 z"
         id="path53"
         inkscape:connector-curvature="0"
         style="fill:#579d44" /><path
         class="st1"
         d="m 257.91,168.6 c 0,0.22 -0.05,0.38 -0.16,0.49 -0.11,0.11 -0.3,0.17 -0.57,0.19 l -0.45,0.04 c -0.63,0.06 -1.09,0.28 -1.4,0.66 -0.3,0.38 -0.46,0.84 -0.46,1.37 l 0,3.42 c 0,0.24 -0.07,0.42 -0.21,0.54 -0.14,0.12 -0.32,0.18 -0.54,0.18 -0.22,0 -0.4,-0.06 -0.55,-0.18 -0.14,-0.12 -0.22,-0.3 -0.22,-0.54 l 0,-6.08 c 0,-0.23 0.07,-0.41 0.22,-0.53 0.14,-0.12 0.33,-0.19 0.55,-0.19 0.2,0 0.37,0.06 0.5,0.19 0.13,0.12 0.2,0.3 0.2,0.52 l 0,0.72 c 0.2,-0.44 0.49,-0.77 0.87,-1 0.38,-0.23 0.81,-0.36 1.29,-0.4 l 0.21,-0.01 c 0.48,-0.03 0.72,0.17 0.72,0.61 z"
         id="path55"
         inkscape:connector-curvature="0"
         style="fill:#579d44" /><path
         class="st1"
         d="m 264.89,173.76 c 0.09,0.11 0.13,0.25 0.13,0.42 0,0.29 -0.18,0.53 -0.54,0.73 -0.35,0.2 -0.73,0.35 -1.14,0.46 -0.41,0.11 -0.81,0.16 -1.19,0.16 -1.16,0 -2.07,-0.34 -2.74,-1.01 -0.67,-0.67 -1,-1.59 -1,-2.76 0,-0.75 0.15,-1.41 0.44,-1.99 0.29,-0.58 0.71,-1.03 1.24,-1.34 0.53,-0.32 1.14,-0.48 1.82,-0.48 0.98,0 1.75,0.31 2.32,0.94 0.57,0.63 0.85,1.47 0.85,2.54 0,0.4 -0.18,0.6 -0.54,0.6 l -4.62,0 c 0.1,1.54 0.84,2.32 2.23,2.32 0.37,0 0.69,-0.05 0.96,-0.15 0.27,-0.1 0.55,-0.23 0.85,-0.39 0.03,-0.02 0.11,-0.06 0.25,-0.13 0.13,-0.06 0.25,-0.1 0.34,-0.1 0.13,0.01 0.25,0.07 0.34,0.18 z m -4.34,-4.14 c -0.35,0.37 -0.56,0.89 -0.63,1.55 l 3.86,0 c -0.03,-0.68 -0.2,-1.2 -0.52,-1.56 -0.31,-0.36 -0.75,-0.54 -1.32,-0.54 -0.57,0 -1.04,0.18 -1.39,0.55 z"
         id="path57"
         inkscape:connector-curvature="0"
         style="fill:#579d44" /><path
         class="st1"
         d="m 273.47,168.19 c 0.13,0.13 0.2,0.31 0.2,0.53 l 0,6.13 c 0,1.12 -0.3,1.96 -0.89,2.53 -0.59,0.57 -1.47,0.85 -2.62,0.85 -1.08,0 -1.97,-0.2 -2.69,-0.61 -0.37,-0.21 -0.55,-0.46 -0.55,-0.75 0,-0.17 0.05,-0.31 0.14,-0.42 0.09,-0.11 0.21,-0.17 0.35,-0.17 0.13,0 0.33,0.08 0.61,0.22 0.36,0.17 0.69,0.3 1,0.4 0.31,0.09 0.68,0.14 1.11,0.14 1.38,0 2.06,-0.69 2.06,-2.08 l 0,-1.15 c -0.21,0.44 -0.53,0.78 -0.96,1.02 -0.43,0.24 -0.93,0.37 -1.5,0.37 -0.64,0 -1.21,-0.15 -1.7,-0.45 -0.5,-0.3 -0.88,-0.72 -1.16,-1.27 -0.27,-0.55 -0.41,-1.18 -0.41,-1.9 0,-0.72 0.14,-1.35 0.42,-1.9 0.28,-0.55 0.67,-0.97 1.16,-1.28 0.49,-0.31 1.06,-0.46 1.7,-0.46 0.56,0 1.05,0.12 1.47,0.36 0.42,0.24 0.74,0.58 0.96,1.02 l 0,-0.63 c 0,-0.22 0.07,-0.39 0.2,-0.52 0.13,-0.13 0.32,-0.19 0.55,-0.19 0.24,0.01 0.42,0.08 0.55,0.21 z m -1.84,5.18 c 0.37,-0.43 0.55,-1.02 0.55,-1.78 0,-0.75 -0.18,-1.34 -0.55,-1.77 -0.36,-0.43 -0.87,-0.65 -1.53,-0.65 -0.66,0 -1.17,0.21 -1.55,0.64 -0.37,0.43 -0.56,1.02 -0.56,1.78 0,0.76 0.19,1.35 0.57,1.78 0.38,0.43 0.89,0.64 1.54,0.64 0.65,0 1.16,-0.21 1.53,-0.64 z"
         id="path59"
         inkscape:connector-curvature="0"
         style="fill:#579d44" /><path
         class="st1"
         d="m 276.01,166.29 c -0.17,-0.16 -0.25,-0.37 -0.25,-0.63 0,-0.26 0.08,-0.47 0.25,-0.62 0.17,-0.15 0.4,-0.23 0.69,-0.23 0.28,0 0.5,0.08 0.68,0.23 0.17,0.16 0.26,0.36 0.26,0.62 0,0.26 -0.08,0.47 -0.25,0.63 -0.17,0.16 -0.4,0.24 -0.69,0.24 -0.29,0 -0.52,-0.08 -0.69,-0.24 z m 0.14,9.04 c -0.14,-0.12 -0.22,-0.3 -0.22,-0.54 l 0,-6.07 c 0,-0.24 0.07,-0.42 0.22,-0.55 0.14,-0.12 0.33,-0.19 0.55,-0.19 0.22,0 0.4,0.06 0.54,0.19 0.14,0.12 0.21,0.31 0.21,0.55 l 0,6.07 c 0,0.24 -0.07,0.42 -0.21,0.54 -0.14,0.12 -0.32,0.18 -0.54,0.18 -0.22,0 -0.41,-0.06 -0.55,-0.18 z"
         id="path61"
         inkscape:connector-curvature="0"
         style="fill:#579d44" /><path
         class="st1"
         d="m 279.74,174.91 c -0.18,-0.11 -0.31,-0.22 -0.38,-0.34 -0.08,-0.12 -0.11,-0.25 -0.11,-0.4 0,-0.16 0.04,-0.29 0.13,-0.4 0.09,-0.11 0.2,-0.16 0.34,-0.16 0.13,0 0.33,0.08 0.61,0.24 0.3,0.16 0.59,0.29 0.88,0.39 0.28,0.1 0.64,0.15 1.07,0.15 0.48,0 0.85,-0.08 1.12,-0.25 0.27,-0.17 0.4,-0.41 0.4,-0.72 0,-0.2 -0.05,-0.36 -0.16,-0.48 -0.11,-0.12 -0.29,-0.23 -0.55,-0.32 -0.26,-0.09 -0.64,-0.2 -1.15,-0.31 -0.88,-0.19 -1.51,-0.45 -1.89,-0.77 -0.38,-0.32 -0.58,-0.76 -0.58,-1.32 0,-0.43 0.12,-0.81 0.37,-1.16 0.25,-0.34 0.59,-0.61 1.03,-0.8 0.44,-0.19 0.94,-0.28 1.49,-0.28 0.4,0 0.79,0.05 1.17,0.16 0.38,0.1 0.71,0.26 1,0.46 0.33,0.22 0.49,0.47 0.49,0.76 0,0.16 -0.05,0.29 -0.14,0.4 -0.09,0.11 -0.21,0.17 -0.34,0.17 -0.09,0 -0.18,-0.02 -0.27,-0.06 -0.09,-0.04 -0.21,-0.11 -0.36,-0.19 -0.27,-0.16 -0.52,-0.28 -0.75,-0.37 -0.23,-0.09 -0.53,-0.13 -0.88,-0.13 -0.42,0 -0.75,0.09 -1.01,0.27 -0.25,0.18 -0.38,0.42 -0.38,0.73 0,0.28 0.12,0.5 0.35,0.65 0.23,0.16 0.67,0.3 1.32,0.44 0.67,0.14 1.19,0.3 1.57,0.48 0.38,0.18 0.65,0.4 0.81,0.67 0.16,0.26 0.25,0.6 0.25,1.01 0,0.65 -0.27,1.17 -0.82,1.56 -0.55,0.39 -1.27,0.59 -2.17,0.59 -0.98,-0.04 -1.81,-0.25 -2.46,-0.67 z"
         id="path63"
         inkscape:connector-curvature="0"
         style="fill:#579d44" /><path
         class="st1"
         d="m 291.02,174.53 c 0.09,0.09 0.14,0.23 0.14,0.4 0,0.2 -0.08,0.35 -0.23,0.46 -0.15,0.11 -0.38,0.15 -0.68,0.13 l -0.4,-0.03 c -0.81,-0.06 -1.41,-0.31 -1.81,-0.74 -0.4,-0.43 -0.6,-1.07 -0.6,-1.92 l 0,-3.51 -0.9,0 c -0.44,0 -0.66,-0.19 -0.66,-0.58 0,-0.18 0.06,-0.32 0.17,-0.43 0.11,-0.11 0.28,-0.16 0.49,-0.16 l 0.9,0 0,-1.54 c 0,-0.23 0.07,-0.41 0.2,-0.54 0.13,-0.13 0.32,-0.19 0.55,-0.19 0.23,0 0.41,0.06 0.55,0.19 0.14,0.13 0.21,0.31 0.21,0.54 l 0,1.54 1.48,0 c 0.21,0 0.37,0.05 0.49,0.16 0.11,0.1 0.17,0.25 0.17,0.43 0,0.19 -0.06,0.33 -0.17,0.43 -0.12,0.1 -0.28,0.15 -0.49,0.15 l -1.48,0 0,3.62 c 0,0.47 0.1,0.81 0.29,1.03 0.19,0.22 0.49,0.34 0.89,0.37 l 0.42,0.03 c 0.22,0.01 0.37,0.06 0.47,0.16 z"
         id="path65"
         inkscape:connector-curvature="0"
         style="fill:#579d44" /><path
         class="st1"
         d="m 296.94,168.6 c 0,0.22 -0.05,0.38 -0.16,0.49 -0.11,0.11 -0.3,0.17 -0.57,0.19 l -0.45,0.04 c -0.63,0.06 -1.09,0.28 -1.4,0.66 -0.3,0.38 -0.46,0.84 -0.46,1.37 l 0,3.42 c 0,0.24 -0.07,0.42 -0.21,0.54 -0.14,0.12 -0.32,0.18 -0.54,0.18 -0.22,0 -0.4,-0.06 -0.55,-0.18 -0.14,-0.12 -0.22,-0.3 -0.22,-0.54 l 0,-6.08 c 0,-0.23 0.07,-0.41 0.22,-0.53 0.14,-0.12 0.33,-0.19 0.55,-0.19 0.2,0 0.37,0.06 0.5,0.19 0.13,0.12 0.2,0.3 0.2,0.52 l 0,0.72 c 0.2,-0.44 0.49,-0.77 0.87,-1 0.38,-0.23 0.81,-0.36 1.29,-0.4 l 0.21,-0.01 c 0.49,-0.03 0.72,0.17 0.72,0.61 z"
         id="path67"
         inkscape:connector-curvature="0"
         style="fill:#579d44" /><path
         class="st1"
         d="m 303.2,168.69 c 0.47,0.49 0.71,1.23 0.71,2.23 l 0,3.87 c 0,0.23 -0.07,0.41 -0.19,0.53 -0.13,0.12 -0.31,0.19 -0.54,0.19 -0.22,0 -0.39,-0.07 -0.52,-0.19 -0.13,-0.13 -0.19,-0.3 -0.19,-0.52 l 0,-0.55 c -0.19,0.42 -0.47,0.74 -0.84,0.96 -0.37,0.22 -0.81,0.34 -1.31,0.34 -0.48,0 -0.92,-0.1 -1.31,-0.29 -0.39,-0.19 -0.71,-0.46 -0.93,-0.8 -0.22,-0.34 -0.34,-0.72 -0.34,-1.15 -0.01,-0.54 0.12,-0.96 0.4,-1.26 0.28,-0.3 0.73,-0.52 1.36,-0.66 0.63,-0.14 1.5,-0.2 2.62,-0.2 l 0.34,0 0,-0.43 c 0,-0.56 -0.11,-0.96 -0.34,-1.21 -0.23,-0.25 -0.6,-0.37 -1.11,-0.37 -0.35,0 -0.68,0.04 -0.99,0.13 -0.31,0.09 -0.65,0.22 -1.02,0.39 -0.27,0.15 -0.46,0.22 -0.57,0.22 -0.15,0 -0.27,-0.05 -0.37,-0.17 -0.09,-0.11 -0.14,-0.25 -0.14,-0.42 0,-0.15 0.04,-0.28 0.13,-0.4 0.08,-0.11 0.22,-0.23 0.41,-0.34 0.35,-0.19 0.76,-0.34 1.23,-0.46 0.47,-0.11 0.92,-0.17 1.36,-0.17 0.96,0 1.68,0.24 2.15,0.73 z m -1.28,5.17 c 0.35,-0.37 0.52,-0.85 0.52,-1.44 l 0,-0.39 -0.27,0 c -0.78,0 -1.38,0.04 -1.79,0.1 -0.42,0.07 -0.72,0.19 -0.9,0.35 -0.18,0.16 -0.27,0.4 -0.27,0.71 0,0.36 0.13,0.65 0.39,0.88 0.26,0.23 0.58,0.34 0.97,0.34 0.55,0.01 1,-0.18 1.35,-0.55 z"
         id="path69"
         inkscape:connector-curvature="0"
         style="fill:#579d44" /><path
         class="st1"
         d="m 310.16,174.53 c 0.09,0.09 0.14,0.23 0.14,0.4 0,0.2 -0.08,0.35 -0.23,0.46 -0.15,0.11 -0.38,0.15 -0.68,0.13 l -0.4,-0.03 c -0.81,-0.06 -1.41,-0.31 -1.81,-0.74 -0.4,-0.43 -0.6,-1.07 -0.6,-1.92 l 0,-3.51 -0.9,0 c -0.44,0 -0.66,-0.19 -0.66,-0.58 0,-0.18 0.06,-0.32 0.17,-0.43 0.11,-0.11 0.28,-0.16 0.49,-0.16 l 0.9,0 0,-1.54 c 0,-0.23 0.07,-0.41 0.2,-0.54 0.13,-0.13 0.32,-0.19 0.55,-0.19 0.23,0 0.41,0.06 0.55,0.19 0.14,0.13 0.21,0.31 0.21,0.54 l 0,1.54 1.48,0 c 0.21,0 0.37,0.05 0.49,0.16 0.11,0.1 0.17,0.25 0.17,0.43 0,0.19 -0.06,0.33 -0.17,0.43 -0.12,0.1 -0.28,0.15 -0.49,0.15 l -1.48,0 0,3.62 c 0,0.47 0.1,0.81 0.29,1.03 0.19,0.22 0.49,0.34 0.89,0.37 l 0.42,0.03 c 0.22,0.01 0.38,0.06 0.47,0.16 z"
         id="path71"
         inkscape:connector-curvature="0"
         style="fill:#579d44" /><path
         class="st1"
         d="m 311.62,166.29 c -0.17,-0.16 -0.25,-0.37 -0.25,-0.63 0,-0.26 0.08,-0.47 0.25,-0.62 0.17,-0.15 0.4,-0.23 0.69,-0.23 0.28,0 0.5,0.08 0.68,0.23 0.17,0.16 0.26,0.36 0.26,0.62 0,0.26 -0.08,0.47 -0.25,0.63 -0.17,0.16 -0.4,0.24 -0.69,0.24 -0.29,0 -0.52,-0.08 -0.69,-0.24 z m 0.14,9.04 c -0.14,-0.12 -0.22,-0.3 -0.22,-0.54 l 0,-6.07 c 0,-0.24 0.07,-0.42 0.22,-0.55 0.14,-0.12 0.33,-0.19 0.55,-0.19 0.22,0 0.4,0.06 0.54,0.19 0.14,0.12 0.21,0.31 0.21,0.55 l 0,6.07 c 0,0.24 -0.07,0.42 -0.21,0.54 -0.14,0.12 -0.32,0.18 -0.54,0.18 -0.22,0 -0.4,-0.06 -0.55,-0.18 z"
         id="path73"
         inkscape:connector-curvature="0"
         style="fill:#579d44" /><path
         class="st1"
         d="m 316.59,175.07 c -0.54,-0.31 -0.96,-0.75 -1.26,-1.32 -0.29,-0.57 -0.44,-1.24 -0.44,-2 0,-0.77 0.15,-1.44 0.44,-2.01 0.29,-0.57 0.71,-1.01 1.26,-1.32 0.55,-0.31 1.17,-0.46 1.89,-0.46 0.72,0 1.35,0.16 1.89,0.46 0.54,0.3 0.96,0.75 1.26,1.32 0.3,0.57 0.44,1.24 0.44,2.01 0,0.76 -0.15,1.42 -0.44,2 -0.29,0.57 -0.71,1.01 -1.26,1.32 -0.55,0.31 -1.17,0.46 -1.89,0.46 -0.72,0.01 -1.35,-0.15 -1.89,-0.46 z m 3.42,-1.39 c 0.35,-0.44 0.53,-1.08 0.53,-1.93 0,-0.84 -0.18,-1.48 -0.54,-1.92 -0.36,-0.44 -0.87,-0.67 -1.52,-0.67 -0.66,0 -1.17,0.22 -1.52,0.67 -0.36,0.44 -0.54,1.08 -0.54,1.92 0,0.85 0.18,1.49 0.53,1.93 0.35,0.44 0.86,0.66 1.53,0.66 0.67,0 1.18,-0.22 1.53,-0.66 z"
         id="path75"
         inkscape:connector-curvature="0"
         style="fill:#579d44" /><path
         class="st1"
         d="m 330.43,170.9 0,3.89 c 0,0.23 -0.07,0.41 -0.2,0.53 -0.13,0.12 -0.32,0.19 -0.56,0.19 -0.23,0 -0.41,-0.07 -0.55,-0.19 -0.13,-0.13 -0.2,-0.3 -0.2,-0.52 l 0,-3.81 c 0,-0.62 -0.12,-1.07 -0.37,-1.36 -0.25,-0.29 -0.63,-0.43 -1.14,-0.43 -0.61,0 -1.1,0.19 -1.46,0.57 -0.36,0.38 -0.55,0.89 -0.55,1.52 l 0,3.51 c 0,0.22 -0.07,0.39 -0.2,0.52 -0.13,0.13 -0.32,0.19 -0.54,0.19 -0.23,0 -0.41,-0.07 -0.55,-0.19 -0.14,-0.13 -0.21,-0.3 -0.21,-0.52 l 0,-6.08 c 0,-0.21 0.07,-0.38 0.22,-0.52 0.14,-0.13 0.33,-0.2 0.55,-0.2 0.22,0 0.39,0.06 0.52,0.19 0.13,0.13 0.19,0.3 0.19,0.51 l 0,0.61 c 0.24,-0.44 0.57,-0.77 1,-1 0.43,-0.23 0.91,-0.34 1.45,-0.34 1.73,-0.01 2.6,0.97 2.6,2.93 z"
         id="path77"
         inkscape:connector-curvature="0"
         style="fill:#579d44" /><path
         class="st1"
         d="m 342.34,168.44 c 0.49,0.32 0.88,0.77 1.15,1.34 0.27,0.58 0.41,1.25 0.41,2 0,0.75 -0.13,1.4 -0.4,1.97 -0.27,0.57 -0.65,1.01 -1.14,1.32 -0.49,0.31 -1.06,0.46 -1.7,0.46 -0.55,0 -1.03,-0.12 -1.45,-0.35 -0.42,-0.23 -0.74,-0.57 -0.96,-1.01 l 0,3.33 c 0,0.21 -0.07,0.38 -0.2,0.5 -0.13,0.12 -0.31,0.19 -0.53,0.19 -0.23,0 -0.42,-0.06 -0.56,-0.19 -0.14,-0.13 -0.22,-0.3 -0.22,-0.52 l 0,-8.76 c 0,-0.22 0.07,-0.4 0.21,-0.53 0.14,-0.13 0.32,-0.2 0.55,-0.2 0.22,0 0.4,0.07 0.54,0.2 0.14,0.13 0.21,0.31 0.21,0.53 l 0,0.61 c 0.22,-0.44 0.54,-0.78 0.96,-1.02 0.42,-0.24 0.9,-0.36 1.45,-0.36 0.62,0.01 1.19,0.17 1.68,0.49 z m -0.52,5.24 c 0.36,-0.44 0.54,-1.07 0.54,-1.89 0,-0.83 -0.18,-1.47 -0.54,-1.93 -0.36,-0.46 -0.87,-0.69 -1.52,-0.69 -0.66,0 -1.16,0.22 -1.52,0.67 -0.35,0.45 -0.53,1.09 -0.53,1.91 0,0.83 0.18,1.46 0.53,1.91 0.35,0.45 0.86,0.67 1.52,0.67 0.66,0.01 1.16,-0.21 1.52,-0.65 z"
         id="path79"
         inkscape:connector-curvature="0"
         style="fill:#579d44" /><path
         class="st1"
         d="m 347,175.07 c -0.54,-0.31 -0.96,-0.75 -1.26,-1.32 -0.29,-0.57 -0.44,-1.24 -0.44,-2 0,-0.77 0.15,-1.44 0.44,-2.01 0.29,-0.57 0.71,-1.01 1.26,-1.32 0.55,-0.31 1.17,-0.46 1.89,-0.46 0.72,0 1.35,0.16 1.89,0.46 0.54,0.3 0.96,0.75 1.26,1.32 0.3,0.57 0.44,1.24 0.44,2.01 0,0.76 -0.15,1.42 -0.44,2 -0.29,0.57 -0.71,1.01 -1.26,1.32 -0.55,0.31 -1.17,0.46 -1.89,0.46 -0.72,0.01 -1.35,-0.15 -1.89,-0.46 z m 3.42,-1.39 c 0.35,-0.44 0.53,-1.08 0.53,-1.93 0,-0.84 -0.18,-1.48 -0.54,-1.92 -0.36,-0.44 -0.87,-0.67 -1.52,-0.67 -0.66,0 -1.17,0.22 -1.52,0.67 -0.36,0.44 -0.54,1.08 -0.54,1.92 0,0.85 0.18,1.49 0.53,1.93 0.35,0.44 0.86,0.66 1.53,0.66 0.67,0 1.18,-0.22 1.53,-0.66 z"
         id="path81"
         inkscape:connector-curvature="0"
         style="fill:#579d44" /><path
         class="st1"
         d="m 358.84,168.6 c 0,0.22 -0.05,0.38 -0.16,0.49 -0.11,0.11 -0.3,0.17 -0.57,0.19 l -0.45,0.04 c -0.63,0.06 -1.09,0.28 -1.4,0.66 -0.3,0.38 -0.46,0.84 -0.46,1.37 l 0,3.42 c 0,0.24 -0.07,0.42 -0.21,0.54 -0.14,0.12 -0.32,0.18 -0.54,0.18 -0.22,0 -0.4,-0.06 -0.55,-0.18 -0.14,-0.12 -0.22,-0.3 -0.22,-0.54 l 0,-6.08 c 0,-0.23 0.07,-0.41 0.22,-0.53 0.14,-0.12 0.33,-0.19 0.55,-0.19 0.2,0 0.37,0.06 0.5,0.19 0.13,0.12 0.2,0.3 0.2,0.52 l 0,0.72 c 0.2,-0.44 0.49,-0.77 0.87,-1 0.38,-0.23 0.81,-0.36 1.29,-0.4 l 0.21,-0.01 c 0.49,-0.03 0.72,0.17 0.72,0.61 z"
         id="path83"
         inkscape:connector-curvature="0"
         style="fill:#579d44" /><path
         class="st1"
         d="m 364.59,174.53 c 0.09,0.09 0.14,0.23 0.14,0.4 0,0.2 -0.08,0.35 -0.23,0.46 -0.15,0.11 -0.38,0.15 -0.68,0.13 l -0.4,-0.03 c -0.81,-0.06 -1.41,-0.31 -1.81,-0.74 -0.4,-0.43 -0.6,-1.07 -0.6,-1.92 l 0,-3.51 -0.9,0 c -0.44,0 -0.66,-0.19 -0.66,-0.58 0,-0.18 0.06,-0.32 0.17,-0.43 0.11,-0.11 0.28,-0.16 0.49,-0.16 l 0.9,0 0,-1.54 c 0,-0.23 0.07,-0.41 0.2,-0.54 0.13,-0.13 0.32,-0.19 0.55,-0.19 0.23,0 0.41,0.06 0.55,0.19 0.14,0.13 0.21,0.31 0.21,0.54 l 0,1.54 1.48,0 c 0.21,0 0.37,0.05 0.49,0.16 0.11,0.1 0.17,0.25 0.17,0.43 0,0.19 -0.06,0.33 -0.17,0.43 -0.12,0.1 -0.28,0.15 -0.49,0.15 l -1.48,0 0,3.62 c 0,0.47 0.1,0.81 0.29,1.03 0.19,0.22 0.49,0.34 0.89,0.37 l 0.42,0.03 c 0.22,0.01 0.38,0.06 0.47,0.16 z"
         id="path85"
         inkscape:connector-curvature="0"
         style="fill:#579d44" /><path
         class="st1"
         d="m 371.2,168.69 c 0.47,0.49 0.71,1.23 0.71,2.23 l 0,3.87 c 0,0.23 -0.07,0.41 -0.19,0.53 -0.13,0.12 -0.31,0.19 -0.54,0.19 -0.22,0 -0.39,-0.07 -0.52,-0.19 -0.13,-0.13 -0.19,-0.3 -0.19,-0.52 l 0,-0.55 c -0.19,0.42 -0.47,0.74 -0.84,0.96 -0.37,0.22 -0.81,0.34 -1.31,0.34 -0.48,0 -0.92,-0.1 -1.31,-0.29 -0.39,-0.19 -0.71,-0.46 -0.93,-0.8 -0.22,-0.34 -0.34,-0.72 -0.34,-1.15 -0.01,-0.54 0.12,-0.96 0.4,-1.26 0.28,-0.3 0.73,-0.52 1.36,-0.66 0.63,-0.14 1.5,-0.2 2.62,-0.2 l 0.34,0 0,-0.43 c 0,-0.56 -0.11,-0.96 -0.34,-1.21 -0.23,-0.25 -0.6,-0.37 -1.11,-0.37 -0.35,0 -0.68,0.04 -0.99,0.13 -0.31,0.09 -0.65,0.22 -1.02,0.39 -0.27,0.15 -0.46,0.22 -0.57,0.22 -0.15,0 -0.27,-0.05 -0.37,-0.17 -0.09,-0.11 -0.14,-0.25 -0.14,-0.42 0,-0.15 0.04,-0.28 0.13,-0.4 0.08,-0.11 0.22,-0.23 0.41,-0.34 0.35,-0.19 0.76,-0.34 1.23,-0.46 0.47,-0.11 0.92,-0.17 1.36,-0.17 0.95,0 1.67,0.24 2.15,0.73 z m -1.28,5.17 c 0.35,-0.37 0.52,-0.85 0.52,-1.44 l 0,-0.39 -0.27,0 c -0.78,0 -1.38,0.04 -1.79,0.1 -0.42,0.07 -0.72,0.19 -0.9,0.35 -0.18,0.16 -0.27,0.4 -0.27,0.71 0,0.36 0.13,0.65 0.39,0.88 0.26,0.23 0.58,0.34 0.97,0.34 0.55,0.01 1,-0.18 1.35,-0.55 z"
         id="path87"
         inkscape:connector-curvature="0"
         style="fill:#579d44" /><path
         class="st1"
         d="m 374.33,175.33 c -0.14,-0.12 -0.22,-0.3 -0.22,-0.54 l 0,-9.24 c 0,-0.24 0.07,-0.42 0.22,-0.54 0.15,-0.12 0.33,-0.19 0.55,-0.19 0.22,0 0.4,0.06 0.54,0.19 0.14,0.12 0.21,0.31 0.21,0.54 l 0,9.24 c 0,0.24 -0.07,0.42 -0.21,0.54 -0.14,0.12 -0.32,0.18 -0.54,0.18 -0.22,0 -0.4,-0.06 -0.55,-0.18 z"
         id="path89"
         inkscape:connector-curvature="0"
         style="fill:#579d44" /></g><g
       id="g91"><g
         id="g93"><path
           class="st2"
           d="m 400.81,156.16 c -0.02,-1.78 -1.34,-3.08 -3.14,-3.09 -0.96,-0.01 -1.92,-0.01 -2.88,0 l -0.31,0 c -0.47,-1.06 -1.41,-1.52 -2.97,-1.52 l -3.27,0 c -1.44,0 -2.88,0 -4.32,0 -1.64,0.01 -2.71,0.88 -2.95,2.38 l -3.04,0.44 c -0.12,0.01 -0.24,0.03 -0.35,0.05 l -0.06,0.01 0,0 c -1.08,0.22 -1.78,0.87 -2.1,1.94 l -237.63,0 0,5.52 237.64,0 c 0.25,0.87 0.77,1.63 2.03,1.89 l 0,0.05 2.35,0.33 0,0.09 1.15,0.12 c 0.23,1.38 1.3,2.32 2.7,2.33 1.39,0.01 2.8,0.01 4.23,0.01 1.38,0 2.77,0 4.17,-0.01 1.13,-0.01 2.01,-0.58 2.45,-1.51 1.06,0 2.11,0 3.16,0 1.8,-0.01 3.12,-1.31 3.14,-3.09 0.02,-1.95 0.02,-3.95 0,-5.94 z"
           id="path95"
           inkscape:connector-curvature="0"
           style="fill:#ffffff" /><path
           class="st2"
           d="m 375.89,155.27 -274.11,0 c -2.04,0 -4.19,0.99 -6.52,3.01 -0.69,-3.87 -2.03,-6.84 -4.06,-9.03 -4.03,-4.36 -9.93,-4.9 -15.62,-5.08 -0.66,-0.02 -1.32,-0.02 -1.97,0 0.32,-3.7 -0.72,-7.04 -2.95,-9.24 -1.84,-1.82 -4.33,-2.71 -7.02,-2.52 -3.34,0.23 -6.81,2.15 -9.49,5.19 -0.42,-0.5 -0.87,-0.95 -1.34,-1.36 -2.45,-2.14 -5.23,-2.89 -7.84,-2.08 -2.47,0.76 -4.31,2.78 -5.2,5.69 -0.81,2.66 -0.72,5.86 0.24,8.99 0.25,0.81 0.55,1.59 0.91,2.35 -4.02,3.11 -9.21,8.28 -13.28,16.32 -0.14,0.27 -0.24,0.55 -0.3,0.85 -0.1,0.52 -0.51,3.23 1.83,5.88 3.3,3.75 10.13,5.17 20.86,4.37 2.49,-0.19 4.52,-0.63 6.04,-1.32 -0.21,0.39 -0.37,0.86 -0.39,1.4 l -0.05,1.28 1.2,0.44 c 1.6,0.59 3.12,0.15 4.34,-0.2 0.45,-0.13 0.88,-0.25 1.27,-0.32 0.46,-0.07 0.97,-0.07 1.52,-0.07 0.64,0 1.35,0 2.09,-0.12 0.71,0.07 1.18,0.1 1.29,0.11 0.83,0.04 1.64,0.07 2.43,0.09 -0.01,0.43 0.09,0.86 0.31,1.26 0.37,0.67 1.03,1.15 1.77,1.28 0.16,0.03 0.32,0.04 0.47,0.04 0.71,0 1.3,-0.28 1.7,-0.47 1.11,-0.52 2.27,-0.86 3.47,-1.01 0.63,-0.08 1.29,-0.11 1.98,-0.14 1.26,-0.05 2.57,-0.11 3.91,-0.48 1.78,-0.49 3.54,-1.59 5.07,-3.16 0.04,-0.04 0.08,-0.08 0.12,-0.12 1.61,-0.75 2.98,-1.64 4.09,-2.66 1.18,-1.09 2.05,-2.31 2.57,-3.63 3.34,-4.81 5.92,-7.03 6.71,-7.4 l 273.93,0 c 2.24,0 4.06,-1.82 4.06,-4.06 0,-2.24 -1.8,-4.08 -4.04,-4.08 z"
           id="path97"
           inkscape:connector-curvature="0"
           style="fill:#ffffff" /></g><g
         id="g99"><g
           id="g101"><path
             class="st1"
             d="m 375.89,157.04 -274.11,0 c -2.22,0 -4.85,1.7 -7.83,5.06 -0.38,-5.33 -1.7,-9.11 -4.04,-11.64 -3.57,-3.86 -9.06,-4.35 -14.38,-4.51 -1.42,-0.04 -2.76,0.02 -4.01,0.17 0.91,-3.86 0.24,-7.61 -2.09,-9.92 -1.47,-1.45 -3.48,-2.17 -5.66,-2.01 -3.2,0.22 -6.59,2.29 -9.06,5.54 -0.22,0.28 -0.41,0.57 -0.61,0.86 -0.7,-1.17 -1.52,-2.19 -2.45,-3.01 -1.97,-1.73 -4.16,-2.34 -6.16,-1.72 -3.9,1.2 -5.56,6.68 -3.78,12.48 0.37,1.21 0.88,2.35 1.49,3.38 -3.8,2.72 -9.56,7.9 -13.97,16.6 -0.06,0.13 -0.11,0.26 -0.14,0.4 -0.05,0.23 -0.4,2.3 1.42,4.36 2.87,3.25 9.4,4.53 19.4,3.78 3.46,-0.26 5.4,-0.98 6.48,-1.76 0.91,0.56 1.93,1.01 2.97,1.38 -0.38,0.29 -0.73,0.59 -1.04,0.86 -0.41,0.36 -0.83,0.83 -0.85,1.42 1.53,0.57 3.13,-0.35 4.71,-0.6 1.26,-0.2 2.58,0.02 3.83,-0.24 0.81,0.09 1.35,0.12 1.44,0.12 1.51,0.07 2.95,0.11 4.34,0.11 0.31,0 0.61,-0.01 0.91,-0.01 -0.26,0.47 -0.54,0.93 -0.88,1.33 -0.08,0.09 -0.17,0.19 -0.21,0.31 -0.15,0.39 0.2,0.85 0.58,0.91 0.38,0.07 0.75,-0.12 1.11,-0.29 1.27,-0.6 2.62,-0.99 4,-1.16 1.88,-0.23 3.81,-0.06 5.64,-0.56 1.61,-0.44 3.08,-1.46 4.28,-2.69 0.1,-0.11 0.22,-0.23 0.33,-0.35 1.57,-0.69 2.88,-1.52 3.94,-2.5 1.26,-1.17 1.88,-2.31 2.2,-3.16 3.96,-5.74 7.12,-8.33 8.12,-8.33 l 274.11,0 c 1.27,0 2.29,-1.03 2.29,-2.29 0,-1.26 -1.06,-2.32 -2.32,-2.32 z"
             id="path103"
             inkscape:connector-curvature="0"
             style="fill:#579d44" /><g
             id="g105"><path
               class="st2"
               d="m 75.43,149.11 c -1.89,-0.06 -3.59,0.1 -5.12,0.4 -0.52,1.08 -1.16,2.14 -1.92,3.14 -2.47,3.24 -5.86,5.31 -9.06,5.54 -0.19,0.01 -0.38,0.02 -0.57,0.02 -1.96,0 -3.75,-0.71 -5.08,-2.03 -0.12,-0.12 -0.23,-0.26 -0.34,-0.39 -0.7,-0.8 -1.24,-1.74 -1.59,-2.79 -0.23,-0.68 -0.39,-1.39 -0.47,-2.13 -1.46,0.48 -2.5,1.15 -2.52,1.16 -0.07,0.04 -0.14,0.08 -0.21,0.12 -0.01,0.01 -0.25,0.13 -0.64,0.34 -0.59,0.33 -1.55,0.9 -2.76,1.77 -3.44,2.46 -8.82,7.25 -12.92,15.21 0.01,0.26 0.12,0.9 0.78,1.6 1.27,1.35 5.14,3.48 16.69,2.61 3.73,-0.28 4.77,-1.06 4.96,-1.25 0.15,-0.43 0.48,-0.78 0.92,-0.95 0.19,-0.08 0.39,-0.11 0.59,-0.11 0.38,0 0.75,0.13 1.04,0.39 1.49,1.29 4.02,2.09 6.29,2.56 1.1,0.23 2.14,0.38 2.97,0.46 0.45,0.05 0.85,0.08 1.15,0.1 2.43,0.12 4.59,0.13 6.53,0.06 9.58,-0.33 13.67,-2.59 15.41,-4.37 1.15,-1.17 1.28,-2.13 1.28,-2.16 0,-0.05 0,-0.09 0.01,-0.14 0.04,-0.8 0.05,-1.56 0.06,-2.3 0.05,-6.49 -1.04,-10.88 -3.31,-13.34 -2.51,-2.71 -6.36,-3.34 -12.17,-3.52 z"
               id="path107"
               inkscape:connector-curvature="0"
               style="fill:#ffffff" /><path
               class="st2"
               d="m 64.36,137.39 c -0.12,0 -0.24,0 -0.37,0.01 -2.28,0.16 -4.79,1.75 -6.71,4.27 -3.18,4.18 -3.8,9.76 -1.34,12.19 0.82,0.81 1.88,1.17 3.15,1.08 2.28,-0.16 4.79,-1.75 6.71,-4.27 l 0,0 c 3.18,-4.18 3.8,-9.76 1.34,-12.19 -0.74,-0.72 -1.67,-1.09 -2.78,-1.09 z"
               id="path109"
               inkscape:connector-curvature="0"
               style="fill:#ffffff" /><path
               class="st2"
               d="m 47.08,149.31 c -0.19,0.09 -0.63,0.32 -1.22,0.66 -0.45,-0.79 -0.84,-1.66 -1.12,-2.58 -1.32,-4.3 -0.18,-7.93 1.68,-8.5 0.2,-0.06 0.41,-0.09 0.61,-0.09 1.02,0 1.98,0.7 2.52,1.17 1.1,0.96 2.06,2.42 2.71,4.09 -0.46,1.17 -0.77,2.35 -0.94,3.5 -2.15,0.5 -3.8,1.47 -4.24,1.75 z"
               id="path111"
               inkscape:connector-curvature="0"
               style="fill:#ffffff" /></g><path
             class="st1"
             d="m 47.59,156.5 c -2.04,0.14 -3.57,1.91 -3.43,3.94 0.14,2.04 1.91,3.57 3.94,3.43 2.04,-0.14 3.57,-1.91 3.43,-3.94 -0.14,-2.04 -1.91,-3.57 -3.94,-3.43 z"
             id="path113"
             inkscape:connector-curvature="0"
             style="fill:#579d44" /></g><path
           class="st3"
           d="m 399.04,156.18 c -0.01,-0.83 -0.55,-1.33 -1.38,-1.34 -1.34,-0.01 -2.69,0 -4.04,0 -0.19,0 -0.38,0 -0.56,0 -0.09,-1.34 -0.28,-1.52 -1.56,-1.52 -0.5,0 -1,0 -1.51,0 -2.03,0 -4.06,0 -6.08,0 -0.9,0 -1.23,0.35 -1.24,1.25 0,0.28 0,0.56 0,0.86 -0.38,0.07 -0.71,0.14 -1.1,0.21 0,0.21 0,0.61 0,0.82 0,0.37 0.07,1.36 -0.5,1.35 -0.57,-0.01 -0.47,-1.02 -0.48,-1.37 0,-0.16 0,-0.51 0,-0.67 -0.47,0.07 -0.88,0.13 -1.32,0.19 0,0.29 0,0.59 0,0.88 0,0.37 0.07,1.36 -0.5,1.35 -0.57,-0.01 -0.47,-1.02 -0.48,-1.37 -0.01,-0.23 -0.01,-0.46 0,-0.7 -1.42,0.05 -1.31,1.07 -1.31,2.03 -0.99,0 -1.9,0 -2.85,0 0,0.68 0,1.31 0,1.98 0.95,0 1.87,0 2.82,0 0.14,1.78 0.25,1.94 1.37,1.99 0,-0.32 0,-0.54 0,-0.86 0,-0.36 -0.06,-1.32 0.46,-1.31 0.53,0.01 0.43,0.99 0.44,1.34 0.01,0.36 0,0.62 0,1.01 0.46,0.06 0.89,0.12 1.37,0.19 0,-0.15 0,-0.31 0,-0.46 0,-0.37 -0.07,-1.36 0.5,-1.35 0.57,0.01 0.47,1.02 0.48,1.37 0.01,0.2 0.01,0.4 0,0.6 0.24,0.02 0.39,0.03 0.54,0.06 0.17,0.03 0.34,0.08 0.56,0.13 0,0.35 -0.01,0.69 0,1.03 0.03,0.65 0.37,1.05 0.99,1.06 2.79,0.02 5.58,0.02 8.37,0 0.64,0 0.95,-0.39 0.98,-1.05 0.01,-0.14 0.02,-0.27 0.03,-0.46 1.55,0 3.07,0.01 4.59,0 0.83,-0.01 1.37,-0.51 1.38,-1.34 0.05,-1.96 0.05,-3.93 0.03,-5.9 z m -1.08,5.66 c 0,0.29 -0.03,0.51 -0.41,0.51 -1.48,-0.01 -2.96,0 -4.49,0 0,-0.71 0,-1.38 0,-2.1 0.62,0 1.21,0 1.85,0 0,-0.72 0,-1.39 0,-2.16 -0.58,0 -1.2,0 -1.86,0 0,-0.75 0,-1.41 0,-2.16 0.56,0 1.13,0 1.71,0 0.88,0 1.77,0.01 2.65,0 0.36,-0.01 0.55,0.08 0.55,0.5 -0.01,1.79 0,3.6 0,5.41 z"
           id="path115"
           inkscape:connector-curvature="0"
           style="fill:#569c44" /></g></g><path
       class="st0"
       d="m 109.65,164.7 c 2.88,2.41 5.83,4.75 8.48,7.39 2.26,-1.35 4.33,-2.94 6.19,-4.77 3.76,-3.7 6.51,-8.2 8.29,-13.5 -4.03,-0.27 -8.07,-1.29 -12.1,-1.55 -2.13,5.67 -5.74,9.82 -10.86,12.43 z"
       id="path117"
       inkscape:connector-curvature="0"
       style="fill:#58595b" /></g></svg>