<?xml version="1.0" encoding="utf-8"?>
<!-- Generator: Adobe Illustrator 24.1.3, SVG Export Plug-In . SVG Version: 6.00 Build 0)  -->
<svg version="1.1" id="Layer_1" xmlns="http://www.w3.org/2000/svg" xmlns:xlink="http://www.w3.org/1999/xlink" x="0px" y="0px"
	 viewBox="0 0 425.2 283.46" style="enable-background:new 0 0 425.2 283.46;" xml:space="preserve">
<style type="text/css">
	.st0{fill:#58595B;}
	.st1{fill:#FFFFFF;}
	.st2{fill:#579D44;}
</style>
<g>
	<path class="st0" d="M147.76,228.51c-2.51-2.51-3.76-5.89-3.76-10.16V49.92c0-4.27,1.25-7.66,3.76-10.16
		c2.51-2.51,5.99-3.76,10.44-3.76h54.57c31.74,0,56.33,8.54,73.77,25.61c17.44,17.08,26.17,41.2,26.17,72.38
		s-8.73,55.36-26.17,72.52c-17.45,17.17-42.03,25.75-73.77,25.75H158.2C153.74,232.27,150.26,231.01,147.76,228.51z M172.01,208.32
		h38.42c48.25,0,72.38-24.78,72.38-74.33c0-49.37-24.13-74.05-72.38-74.05h-38.42V208.32z"/>
	<g>
		<path class="st1" d="M390.96,179.1c-0.05-4.39-3.31-7.61-7.76-7.64c-2.38-0.02-4.76-0.01-7.13-0.01h-0.78
			c-1.17-2.62-3.48-3.75-7.33-3.75h-8.09c-3.56,0-7.13,0-10.69,0.01c-4.06,0.01-6.7,2.18-7.29,5.88l-7.52,1.08
			c-0.3,0.03-0.59,0.07-0.87,0.13l-0.16,0.02v0.01c-2.67,0.55-4.41,2.16-5.18,4.8h-7.51v13.66h7.56c0.61,2.15,1.91,4.03,5.02,4.69
			v0.11l5.8,0.81v0.22l2.85,0.29c0.57,3.42,3.2,5.74,6.69,5.76c3.43,0.02,6.92,0.04,10.45,0.04c3.41,0,6.85-0.01,10.31-0.03
			c2.78-0.02,4.97-1.43,6.05-3.73c2.62,0,5.22,0.01,7.82-0.01c4.45-0.03,7.71-3.24,7.76-7.63
			C391.02,188.95,391.02,184.01,390.96,179.1z"/>
		<path class="st1" d="M329.34,176.88h-97.75c-5.03,0-10.35,2.45-16.12,7.45c-1.72-9.56-5.03-16.92-10.04-22.34
			c-9.97-10.79-24.55-12.12-38.63-12.57c-1.63-0.05-3.26-0.05-4.87,0.01c0.79-9.14-1.78-17.42-7.28-22.86
			c-4.54-4.49-10.72-6.7-17.37-6.23c-8.25,0.58-16.84,5.31-23.48,12.84c-1.04-1.23-2.15-2.36-3.31-3.37
			c-6.05-5.3-12.94-7.14-19.39-5.15c-6.1,1.88-10.67,6.88-12.85,14.08c-2,6.59-1.78,14.49,0.6,22.24c0.61,1.99,1.36,3.93,2.24,5.8
			c-9.94,7.68-22.78,20.48-32.84,40.35c-0.34,0.66-0.58,1.37-0.73,2.1c-0.26,1.28-1.26,8,4.52,14.55
			c8.17,9.26,25.04,12.8,51.58,10.81c6.17-0.46,11.17-1.56,14.94-3.27c-0.52,0.97-0.91,2.13-0.96,3.47l-0.11,3.16l2.97,1.1
			c3.96,1.46,7.71,0.38,10.73-0.49c1.12-0.32,2.18-0.63,3.13-0.78c1.13-0.18,2.41-0.18,3.77-0.18c1.58,0,3.35,0,5.17-0.3
			c1.74,0.18,2.92,0.25,3.18,0.26c2.05,0.1,4.06,0.17,6.02,0.21c-0.03,1.06,0.23,2.13,0.77,3.11c0.92,1.65,2.56,2.83,4.37,3.16
			c0.4,0.07,0.79,0.1,1.16,0.1c1.76,0,3.21-0.69,4.21-1.16c2.73-1.29,5.62-2.13,8.57-2.5c1.56-0.19,3.18-0.26,4.9-0.33
			c3.13-0.13,6.36-0.27,9.67-1.18c4.41-1.22,8.75-3.92,12.55-7.82c0.09-0.1,0.19-0.19,0.29-0.3c3.98-1.84,7.38-4.06,10.12-6.58
			c2.92-2.7,5.06-5.72,6.37-8.98c8.26-11.9,14.65-17.39,16.61-18.29h97.32c5.54,0,10.05-4.51,10.05-10.05
			S334.88,176.88,329.34,176.88z"/>
	</g>
	<g>
		<g>
			<path class="st2" d="M329.34,181.26h-97.75c-5.5,0-11.99,4.2-19.38,12.5c-0.93-13.19-4.2-22.52-10-28.8
				c-8.82-9.54-22.4-10.75-35.55-11.17c-3.52-0.11-6.83,0.05-9.93,0.43c2.25-9.55,0.6-18.83-5.17-24.54
				c-3.63-3.59-8.6-5.36-13.99-4.98c-7.92,0.55-16.29,5.67-22.41,13.69c-0.53,0.7-1.02,1.41-1.51,2.13
				c-1.72-2.89-3.77-5.43-6.06-7.43c-4.87-4.27-10.28-5.78-15.23-4.26c-9.65,2.97-13.76,16.52-9.35,30.86
				c0.92,3,2.18,5.82,3.67,8.37c-9.4,6.72-23.65,19.53-34.55,41.05c-0.16,0.32-0.28,0.65-0.35,1c-0.11,0.57-0.99,5.68,3.51,10.78
				c7.1,8.05,23.24,11.19,47.97,9.34c8.56-0.64,13.35-2.43,16.02-4.34c2.25,1.38,4.77,2.49,7.34,3.4c-0.93,0.72-1.8,1.45-2.58,2.14
				c-1.02,0.9-2.06,2.05-2.11,3.52c3.79,1.4,7.73-0.87,11.65-1.49c3.12-0.5,6.38,0.05,9.46-0.58c2.01,0.22,3.35,0.3,3.56,0.31
				c3.73,0.18,7.3,0.27,10.73,0.27c0.77,0,1.51-0.02,2.26-0.03c-0.64,1.17-1.34,2.29-2.19,3.28c-0.2,0.23-0.41,0.47-0.53,0.76
				c-0.38,0.97,0.5,2.09,1.44,2.26s1.87-0.29,2.74-0.71c3.14-1.48,6.49-2.46,9.9-2.88c4.64-0.58,9.42-0.14,13.95-1.39
				c3.97-1.1,7.61-3.61,10.58-6.66c0.26-0.26,0.54-0.56,0.82-0.87c3.87-1.71,7.13-3.76,9.74-6.17c3.12-2.88,4.66-5.71,5.44-7.83
				c9.78-14.2,17.61-20.61,20.07-20.61h97.75c3.13,0,5.67-2.54,5.67-5.67C335.01,183.8,332.47,181.26,329.34,181.26z"/>
			<g>
				<path class="st1" d="M166.41,161.65c-4.67-0.15-8.89,0.26-12.67,0.99c-1.28,2.67-2.86,5.28-4.75,7.76
					c-6.11,8.02-14.49,13.14-22.41,13.69c-0.48,0.03-0.95,0.05-1.42,0.05c-4.84,0-9.26-1.76-12.57-5.03
					c-0.3-0.3-0.57-0.63-0.85-0.95c-1.74-1.98-3.06-4.31-3.94-6.9c-0.56-1.67-0.96-3.43-1.17-5.28c-3.61,1.19-6.19,2.85-6.24,2.88
					c-0.16,0.11-0.34,0.21-0.51,0.29c-0.03,0.02-0.63,0.31-1.58,0.84c-1.45,0.81-3.82,2.22-6.83,4.37
					c-8.51,6.09-21.82,17.93-31.96,37.62c0.04,0.65,0.3,2.23,1.92,3.95c3.15,3.33,12.7,8.6,41.27,6.46
					c9.23-0.69,11.79-2.63,12.27-3.09c0.37-1.07,1.19-1.94,2.26-2.36c0.47-0.19,0.96-0.28,1.45-0.28c0.93,0,1.84,0.33,2.57,0.96
					c3.69,3.19,9.95,5.17,15.56,6.32c2.73,0.56,5.29,0.93,7.35,1.15c1.12,0.12,2.1,0.2,2.85,0.24c6,0.29,11.34,0.31,16.16,0.15
					c23.68-0.8,33.82-6.42,38.12-10.81c2.85-2.9,3.16-5.27,3.17-5.33c0.01-0.12,0.01-0.23,0.01-0.34c0.09-1.97,0.13-3.86,0.15-5.7
					c0.13-16.06-2.56-26.91-8.19-33C190.31,163.67,180.79,162.11,166.41,161.65z"/>
				<path class="st1" d="M139.05,132.68c-0.3,0-0.6,0.01-0.91,0.03c-5.65,0.39-11.85,4.34-16.58,10.55
					c-7.87,10.33-9.39,24.13-3.31,30.14c2.02,2,4.64,2.9,7.79,2.68c5.65-0.39,11.85-4.34,16.58-10.55l0,0
					c7.87-10.33,9.39-24.13,3.31-30.14C144.1,133.59,141.79,132.68,139.05,132.68z"/>
				<path class="st1" d="M96.32,162.14c-0.48,0.23-1.56,0.79-3.02,1.63c-1.12-1.95-2.07-4.11-2.77-6.39
					c-3.27-10.64-0.44-19.62,4.15-21.03c0.5-0.16,1.01-0.22,1.51-0.22c2.51,0,4.9,1.72,6.23,2.88c2.72,2.39,5.09,5.99,6.7,10.11
					c-1.13,2.88-1.91,5.8-2.32,8.66C101.47,159.07,97.39,161.47,96.32,162.14z"/>
			</g>
			<path class="st2" d="M97.56,179.93c-5.03,0.35-8.83,4.72-8.48,9.75c0.35,5.03,4.72,8.83,9.75,8.48s8.83-4.72,8.48-9.75
				C106.97,183.38,102.6,179.58,97.56,179.93z"/>
		</g>
		<path class="st2" d="M386.59,179.15c-0.02-2.06-1.36-3.3-3.41-3.31c-3.33-0.02-6.65-0.01-9.98-0.01c-0.47,0-0.93,0-1.38,0
			c-0.23-3.32-0.7-3.75-3.85-3.75c-1.24,0-2.48,0-3.72,0c-5.01,0-10.03-0.01-15.04,0.01c-2.21,0.01-3.03,0.86-3.05,3.09
			c-0.01,0.69,0,1.37,0,2.12c-0.93,0.18-1.76,0.34-2.71,0.52c0,0.52,0,1.52,0,2.04c-0.01,0.91,0.17,3.36-1.24,3.33
			s-1.15-2.51-1.18-3.4c-0.01-0.39-0.01-1.25-0.01-1.65c-1.17,0.17-2.18,0.31-3.27,0.47c0,0.73,0,1.46,0,2.18
			c-0.01,0.91,0.17,3.36-1.24,3.33s-1.15-2.51-1.18-3.4c-0.02-0.57-0.01-1.14-0.01-1.73c-3.51,0.13-3.24,2.66-3.23,5.01
			c-2.44,0-4.7,0-7.04,0c0,1.68,0,3.23,0,4.91c2.36,0,4.62,0,6.97,0c0.34,4.39,0.63,4.8,3.39,4.93c0-0.79,0-1.34,0-2.13
			c0.01-0.89-0.15-3.27,1.14-3.24c1.3,0.03,1.06,2.44,1.08,3.3c0.02,0.88,0.01,1.53,0.01,2.51c1.15,0.16,2.19,0.3,3.39,0.47
			c0-0.38,0-0.76,0-1.15c0.01-0.91-0.17-3.36,1.24-3.33s1.15,2.51,1.18,3.4c0.01,0.49,0.01,0.98,0.01,1.48
			c0.58,0.06,0.96,0.08,1.33,0.15c0.43,0.08,0.85,0.2,1.39,0.32c0,0.88-0.03,1.72,0.01,2.55c0.07,1.6,0.91,2.6,2.46,2.61
			c6.9,0.05,13.8,0.05,20.7,0c1.58-0.01,2.35-0.97,2.43-2.6c0.02-0.33,0.05-0.67,0.08-1.13c3.84,0,7.6,0.02,11.36-0.01
			c2.05-0.01,3.39-1.25,3.41-3.31C386.64,188.88,386.64,184.01,386.59,179.15z M383.94,193.13c0,0.73-0.08,1.27-1.01,1.26
			c-3.67-0.02-7.33-0.01-11.09-0.01c0-1.75,0-3.41,0-5.2c1.52,0,2.99,0,4.58,0c0-1.79,0-3.44,0-5.35c-1.44,0-2.98,0-4.59,0
			c0-1.86,0-3.48,0-5.34c1.39,0,2.81,0,4.22,0c2.18,0,4.37,0.03,6.55-0.01c0.9-0.02,1.36,0.19,1.35,1.23
			C383.9,184.19,383.92,188.66,383.94,193.13z"/>
	</g>
	<path class="st0" d="M250.52,200.1c7.06,5.92,14.3,11.66,20.82,18.13c5.55-3.32,10.63-7.21,15.2-11.72
		c9.22-9.08,15.99-20.13,20.33-33.13c-9.9-0.66-19.8-3.17-29.7-3.81C271.93,183.5,263.07,193.69,250.52,200.1z"/>
</g>
</svg>
